# Blender v2.83.2 OBJ File: ''
# www.blender.org
mtllib cone.mtl
o Cone
v -0.000000 -1.000000 -0.925528
v 0.180562 -1.000000 -0.907744
v 0.354184 -1.000000 -0.855077
v 0.514196 -1.000000 -0.769549
v 0.654447 -1.000000 -0.654447
v 0.769549 -1.000000 -0.514196
v 0.855077 -1.000000 -0.354184
v 0.907744 -1.000000 -0.180562
v 0.925528 -1.000000 -0.000000
v 0.907744 -1.000000 0.180561
v 0.855077 -1.000000 0.354184
v 0.769549 -1.000000 0.514196
v 0.654447 -1.000000 0.654447
v 0.514196 -1.000000 0.769549
v 0.354184 -1.000000 0.855077
v 0.180561 -1.000000 0.907744
v -0.000000 -1.000000 0.925528
v -0.180562 -1.000000 0.907744
v -0.354185 -1.000000 0.855076
v -0.514196 -1.000000 0.769548
v -0.654448 -1.000000 0.654447
v -0.769549 -1.000000 0.514195
v -0.855077 -1.000000 0.354184
v 0.000000 1.000000 0.000000
v -0.907745 -1.000000 0.180561
v -0.925528 -1.000000 -0.000001
v -0.907744 -1.000000 -0.180563
v -0.855076 -1.000000 -0.354185
v -0.769548 -1.000000 -0.514197
v -0.654446 -1.000000 -0.654448
v -0.514195 -1.000000 -0.769549
v -0.354183 -1.000000 -0.855077
v -0.180560 -1.000000 -0.907745
v 0.000000 -1.000000 -1.000000
v 0.195090 -1.000000 -0.980785
v 0.382683 -1.000000 -0.923880
v 0.555570 -1.000000 -0.831470
v 0.707107 -1.000000 -0.707107
v 0.831470 -1.000000 -0.555570
v 0.923880 -1.000000 -0.382683
v 0.980785 -1.000000 -0.195090
v 1.000000 -1.000000 -0.000000
v 0.980785 -1.000000 0.195090
v 0.923880 -1.000000 0.382683
v 0.831470 -1.000000 0.555570
v 0.707107 -1.000000 0.707107
v 0.555570 -1.000000 0.831470
v 0.382683 -1.000000 0.923880
v 0.195090 -1.000000 0.980785
v -0.000000 -1.000000 1.000000
v -0.195091 -1.000000 0.980785
v -0.382684 -1.000000 0.923879
v -0.555571 -1.000000 0.831469
v -0.707107 -1.000000 0.707106
v -0.831470 -1.000000 0.555570
v -0.923880 -1.000000 0.382683
v -0.980785 -1.000000 0.195089
v -1.000000 -1.000000 -0.000001
v -0.980785 -1.000000 -0.195091
v -0.923879 -1.000000 -0.382684
v -0.831469 -1.000000 -0.555571
v -0.707106 -1.000000 -0.707108
v -0.555569 -1.000000 -0.831470
v -0.382682 -1.000000 -0.923880
v -0.195089 -1.000000 -0.980786
v 0.000000 0.961008 0.000000
vt 0.250000 0.490000
vt 0.250000 0.250000
vt 0.296822 0.485388
vt 0.341844 0.471731
vt 0.383337 0.449553
vt 0.419706 0.419706
vt 0.449553 0.383337
vt 0.471731 0.341844
vt 0.485388 0.296822
vt 0.490000 0.250000
vt 0.485388 0.203178
vt 0.471731 0.158156
vt 0.449553 0.116663
vt 0.419706 0.080294
vt 0.383337 0.050447
vt 0.341844 0.028269
vt 0.296822 0.014612
vt 0.250000 0.010000
vt 0.203178 0.014612
vt 0.158156 0.028269
vt 0.116663 0.050447
vt 0.080294 0.080294
vt 0.050447 0.116663
vt 0.028269 0.158156
vt 0.014611 0.203179
vt 0.010000 0.250000
vt 0.014612 0.296822
vt 0.028269 0.341844
vt 0.050447 0.383337
vt 0.080295 0.419706
vt 0.116663 0.449553
vt 0.158156 0.471731
vt 0.203179 0.485389
vt 0.000000 0.000000
vt 0.967858 0.293335
vt 0.972126 0.250000
vt 0.793335 0.467859
vt 0.750000 0.472127
vt 0.750000 0.490000
vt 0.796822 0.485388
vt 0.835004 0.455218
vt 0.841844 0.471731
vt 0.873407 0.434692
vt 0.883337 0.449553
vt 0.907067 0.407067
vt 0.919706 0.419706
vt 0.934691 0.373407
vt 0.949553 0.383337
vt 0.955218 0.335004
vt 0.971731 0.341844
vt 0.985388 0.296822
vt 0.990000 0.250000
vt 0.967859 0.206665
vt 0.985388 0.203178
vt 0.955218 0.164996
vt 0.971731 0.158156
vt 0.934691 0.126593
vt 0.949553 0.116663
vt 0.907067 0.092933
vt 0.919706 0.080294
vt 0.873407 0.065308
vt 0.883337 0.050447
vt 0.835004 0.044782
vt 0.841844 0.028269
vt 0.793334 0.032141
vt 0.796822 0.014612
vt 0.750000 0.027873
vt 0.750000 0.010000
vt 0.706665 0.032141
vt 0.703178 0.014612
vt 0.664996 0.044782
vt 0.658156 0.028269
vt 0.626593 0.065308
vt 0.616663 0.050447
vt 0.592932 0.092933
vt 0.580294 0.080294
vt 0.565308 0.126593
vt 0.550447 0.116663
vt 0.544782 0.164996
vt 0.528269 0.158156
vt 0.532141 0.206665
vt 0.514611 0.203179
vt 0.527873 0.250000
vt 0.510000 0.250000
vt 0.532141 0.293335
vt 0.514612 0.296822
vt 0.544782 0.335004
vt 0.528269 0.341844
vt 0.565309 0.373407
vt 0.550447 0.383337
vt 0.592933 0.407068
vt 0.580295 0.419706
vt 0.626593 0.434692
vt 0.616663 0.449553
vt 0.664996 0.455218
vt 0.658156 0.471731
vt 0.706666 0.467859
vt 0.703179 0.485389
vt 0.000000 0.000000
vt 0.000000 0.000000
vt 0.000000 0.000000
vt 0.000000 0.000000
vt 0.000000 0.000000
vn 0.0878 0.4455 -0.8910
vn 0.2599 0.4455 -0.8567
vn 0.4220 0.4455 -0.7896
vn 0.5680 0.4455 -0.6921
vn 0.6921 0.4455 -0.5680
vn 0.7896 0.4455 -0.4220
vn 0.8567 0.4455 -0.2599
vn 0.8910 0.4455 -0.0878
vn 0.8910 0.4455 0.0878
vn 0.8567 0.4455 0.2599
vn 0.7896 0.4455 0.4220
vn 0.6921 0.4455 0.5680
vn 0.5680 0.4455 0.6921
vn 0.4220 0.4455 0.7896
vn 0.2599 0.4455 0.8567
vn 0.0878 0.4455 0.8910
vn -0.0878 0.4455 0.8910
vn -0.2599 0.4455 0.8567
vn -0.4220 0.4455 0.7896
vn -0.5680 0.4455 0.6921
vn -0.6921 0.4455 0.5680
vn -0.7896 0.4455 0.4220
vn -0.8567 0.4455 0.2599
vn -0.8910 0.4455 0.0878
vn -0.8910 0.4455 -0.0878
vn -0.8567 0.4455 -0.2599
vn -0.7896 0.4455 -0.4220
vn -0.6921 0.4455 -0.5680
vn -0.5680 0.4455 -0.6921
vn -0.4220 0.4455 -0.7896
vn -0.2599 0.4455 -0.8567
vn -0.0878 0.4455 -0.8910
vn -0.9008 -0.4251 0.0887
vn 0.0000 -1.0000 0.0000
vn -0.9008 -0.4251 -0.0887
vn -0.8662 -0.4251 -0.2627
vn -0.7983 -0.4251 -0.4267
vn -0.6997 -0.4251 -0.5742
vn -0.5742 -0.4251 -0.6997
vn -0.4267 -0.4251 -0.7983
vn -0.2627 -0.4251 -0.8662
vn -0.0887 -0.4251 -0.9008
vn 0.0887 -0.4251 -0.9008
vn 0.2627 -0.4251 -0.8662
vn 0.4267 -0.4251 -0.7983
vn 0.5742 -0.4251 -0.6997
vn 0.6997 -0.4251 -0.5742
vn 0.7983 -0.4251 -0.4267
vn 0.8662 -0.4251 -0.2627
vn 0.9039 -0.4183 -0.0890
vn 0.9008 -0.4251 0.0887
vn 0.8662 -0.4251 0.2627
vn 0.7983 -0.4251 0.4267
vn 0.6997 -0.4251 0.5742
vn 0.5742 -0.4251 0.6997
vn 0.9008 -0.4251 -0.0887
vn 0.4267 -0.4251 0.7983
vn 0.2627 -0.4251 0.8662
vn 0.0887 -0.4251 0.9008
vn -0.0887 -0.4251 0.9008
vn -0.2627 -0.4251 0.8662
vn -0.4267 -0.4251 0.7983
vn -0.5742 -0.4251 0.6997
vn -0.6997 -0.4251 0.5742
vn -0.7983 -0.4251 0.4267
vn -0.8904 -0.4200 0.1758
vn 0.8662 0.4251 -0.2627
usemtl None
s off
f 34/1/1 24/2/1 35/3/1
f 35/3/2 24/2/2 36/4/2
f 36/4/3 24/2/3 37/5/3
f 37/5/4 24/2/4 38/6/4
f 38/6/5 24/2/5 39/7/5
f 39/7/6 24/2/6 40/8/6
f 40/8/7 24/2/7 41/9/7
f 41/9/8 24/2/8 42/10/8
f 42/10/9 24/2/9 43/11/9
f 43/11/10 24/2/10 44/12/10
f 44/12/11 24/2/11 45/13/11
f 45/13/12 24/2/12 46/14/12
f 46/14/13 24/2/13 47/15/13
f 47/15/14 24/2/14 48/16/14
f 48/16/15 24/2/15 49/17/15
f 49/17/16 24/2/16 50/18/16
f 50/18/17 24/2/17 51/19/17
f 51/19/18 24/2/18 52/20/18
f 52/20/19 24/2/19 53/21/19
f 53/21/20 24/2/20 54/22/20
f 54/22/21 24/2/21 55/23/21
f 55/23/22 24/2/22 56/24/22
f 56/24/23 24/2/23 57/25/23
f 57/25/24 24/2/24 58/26/24
f 58/26/25 24/2/25 59/27/25
f 59/27/26 24/2/26 60/28/26
f 60/28/27 24/2/27 61/29/27
f 61/29/28 24/2/28 62/30/28
f 62/30/29 24/2/29 63/31/29
f 63/31/30 24/2/30 64/32/30
f 64/32/31 24/2/31 65/33/31
f 65/33/32 24/2/32 34/1/32
f 66/34/33 8/35/33 9/36/33
f 2/37/34 1/38/34 34/39/34 35/40/34
f 3/41/34 2/37/34 35/40/34 36/42/34
f 4/43/34 3/41/34 36/42/34 37/44/34
f 5/45/34 4/43/34 37/44/34 38/46/34
f 6/47/34 5/45/34 38/46/34 39/48/34
f 7/49/34 6/47/34 39/48/34 40/50/34
f 8/35/34 7/49/34 40/50/34 41/51/34
f 9/36/34 8/35/34 41/51/34 42/52/34
f 10/53/34 9/36/34 42/52/34 43/54/34
f 11/55/34 10/53/34 43/54/34 44/56/34
f 12/57/34 11/55/34 44/56/34 45/58/34
f 13/59/34 12/57/34 45/58/34 46/60/34
f 14/61/34 13/59/34 46/60/34 47/62/34
f 15/63/34 14/61/34 47/62/34 48/64/34
f 16/65/34 15/63/34 48/64/34 49/66/34
f 17/67/34 16/65/34 49/66/34 50/68/34
f 18/69/34 17/67/34 50/68/34 51/70/34
f 19/71/34 18/69/34 51/70/34 52/72/34
f 20/73/34 19/71/34 52/72/34 53/74/34
f 21/75/34 20/73/34 53/74/34 54/76/34
f 22/77/34 21/75/34 54/76/34 55/78/34
f 23/79/34 22/77/34 55/78/34 56/80/34
f 25/81/34 23/79/34 56/80/34 57/82/34
f 26/83/34 25/81/34 57/82/34 58/84/34
f 27/85/34 26/83/34 58/84/34 59/86/34
f 28/87/34 27/85/34 59/86/34 60/88/34
f 29/89/34 28/87/34 60/88/34 61/90/34
f 30/91/34 29/89/34 61/90/34 62/92/34
f 31/93/34 30/91/34 62/92/34 63/94/34
f 32/95/34 31/93/34 63/94/34 64/96/34
f 33/97/34 32/95/34 64/96/34 65/98/34
f 1/38/34 33/97/34 65/98/34 34/39/34
f 9/36/35 10/53/35 66/34/35
f 11/55/36 66/34/36 10/53/36
f 12/57/37 66/34/37 11/55/37
f 13/59/38 66/34/38 12/57/38
f 14/61/39 66/34/39 13/59/39
f 15/63/40 66/34/40 14/61/40
f 16/65/41 66/34/41 15/63/41
f 17/67/42 66/34/42 16/65/42
f 18/69/43 66/34/43 17/67/43
f 19/71/44 66/34/44 18/69/44
f 20/73/45 66/34/45 19/71/45
f 21/75/46 66/34/46 20/73/46
f 22/77/47 66/34/47 21/75/47
f 23/79/48 66/34/48 22/77/48
f 25/81/49 66/34/49 23/79/49
f 24/99/50 25/81/50 26/83/50
f 66/34/51 26/83/51 27/85/51
f 27/85/52 28/87/52 66/34/52
f 29/89/53 66/34/53 28/87/53
f 30/91/54 66/34/54 29/89/54
f 31/93/55 66/34/55 30/91/55
f 66/34/56 25/100/56 26/101/56
f 32/95/57 66/34/57 31/93/57
f 33/97/58 66/34/58 32/95/58
f 1/38/59 66/34/59 33/97/59
f 2/37/60 66/34/60 1/38/60
f 3/41/61 66/34/61 2/37/61
f 4/43/62 66/34/62 3/41/62
f 5/45/63 66/34/63 4/43/63
f 6/47/64 66/34/64 5/45/64
f 7/49/65 66/34/65 6/47/65
f 8/35/66 66/34/66 24/99/66 7/49/66
f 7/102/67 66/34/67 8/103/67
