<?xml version="1.0" encoding="UTF-8" standalone="no"?>
<!-- Created with Inkscape (http://www.inkscape.org/) -->

<svg
   xmlns:dc="http://purl.org/dc/elements/1.1/"
   xmlns:cc="http://creativecommons.org/ns#"
   xmlns:rdf="http://www.w3.org/1999/02/22-rdf-syntax-ns#"
   xmlns:svg="http://www.w3.org/2000/svg"
   xmlns="http://www.w3.org/2000/svg"
   xmlns:sodipodi="http://sodipodi.sourceforge.net/DTD/sodipodi-0.dtd"
   xmlns:inkscape="http://www.inkscape.org/namespaces/inkscape"
   version="1.1"
   id="svg2"
   width="1920"
   height="1080"
   viewBox="0 0 1920 1080"
   sodipodi:docname="Jugar (1).svg"
   inkscape:version="0.92.4 (5da689c313, 2019-01-14)"
   inkscape:export-filename="C:\Users\alexs\Documents\Unity Projects\AR APP\Assets\Imagenes\large button.png"
   inkscape:export-xdpi="96"
   inkscape:export-ydpi="96">
  <metadata
     id="metadata8">
    <rdf:RDF>
      <cc:Work
         rdf:about="">
        <dc:format>image/svg+xml</dc:format>
        <dc:type
           rdf:resource="http://purl.org/dc/dcmitype/StillImage" />
        <dc:title />
      </cc:Work>
    </rdf:RDF>
  </metadata>
  <defs
     id="defs6" />
  <sodipodi:namedview
     pagecolor="#ffffff"
     bordercolor="#666666"
     borderopacity="1"
     objecttolerance="10"
     gridtolerance="10"
     guidetolerance="10"
     inkscape:pageopacity="0"
     inkscape:pageshadow="2"
     inkscape:window-width="1920"
     inkscape:window-height="1001"
     id="namedview4"
     showgrid="false"
     inkscape:zoom="0.49939416"
     inkscape:cx="573.9965"
     inkscape:cy="647.1065"
     inkscape:window-x="-9"
     inkscape:window-y="-9"
     inkscape:window-maximized="1"
     inkscape:current-layer="svg2" />
  <g
     id="g817"
     transform="matrix(1.0650709,0,0,1.0650709,-62.692916,-63.030842)">
    <path
       style="fill:#d3f6f9"
       d="M 447.12151,967.43393 C 338.40589,955.53215 241.40667,905.37353 169.7419,824 111.43522,757.79425 75.700661,676.12552 65.82258,586.5 63.742114,567.62357 64.042136,507.30627 66.307552,489 72.983984,435.04938 86.610269,390.07012 110.38619,343.5 162.69036,241.05131 252.28414,164.89954 361.5,130.06153 c 27.1409,-8.65749 52.52598,-14.07164 83.5,-17.80895 12.26515,-1.47991 58.22883,-1.66155 502.5,-1.98574 323.5027,-0.23607 495.0919,-0.0126 507,0.66029 47.6205,2.69091 89.8086,12.15635 135,30.28896 132.1524,53.02486 230.1507,170.83695 258.5159,310.78391 6.427,31.70953 7.4455,43.57731 7.4657,87 0.012,26.41799 -0.4113,42.9775 -1.2791,50 -8.9249,72.22435 -30.97,132.48038 -69.6958,190.5 -64.2658,96.28383 -164.1972,162.0641 -278.0067,182.99909 -35.0336,6.44435 13.3104,5.90035 -542.5,6.1046 -418.66532,0.15385 -506.60605,-0.0452 -516.87849,-1.16976 z"
       id="path849"
       inkscape:connector-curvature="0" />
    <path
       style="fill:#b0f0f6"
       d="M 465.5,967.95966 C 429.39778,966.13996 387.62758,957.75669 350.12531,944.80398 262.90007,914.67773 185.63608,854.3801 134.61365,776.61642 103.87523,729.76776 82.322706,676.70939 72.01829,622.51812 67.013917,596.19995 65.801902,582.80884 65.280701,548.07693 64.75725,513.19512 65.375589,501.42732 69.094258,475.5 81.789414,386.98677 122.60735,304.43309 185.47205,240.12764 222.35131,202.40316 256.47639,177.65026 303.5,154.51509 c 51.11679,-25.14897 100.75554,-38.50576 158,-42.51463 11.59033,-0.81168 152.14865,-1.0229 510,-0.76639 545.225,0.39082 497.1764,-0.18443 533.5,6.3872 121.8311,22.04154 227.339,95.28191 291.1158,202.08353 77.2671,129.39286 79.7969,297.20507 6.465,428.8399 -19.3875,34.80157 -40.8039,63.43684 -69.041,92.31268 -59.3138,60.65548 -136.0685,102.54549 -218.0398,118.99845 -15.3404,3.07907 -29.2742,5.24909 -47,7.31971 -11.5237,1.34612 -976.87731,2.10082 -1003,0.78412 z"
       id="path847"
       inkscape:connector-curvature="0" />
    <path
       style="fill:#94ebf4"
       d="M 456.5,966.88711 C 424.92387,964.50165 384.34737,955.98086 352.35436,945.01722 210.22032,896.30951 103.52396,774.73486 73.567321,627.35467 63.969826,580.13706 62.500074,523.93954 69.582741,475 76.909181,424.37606 94.935626,371.98105 120.52425,326.93526 141.84489,289.40277 174.42316,248.9153 205.95178,220.76802 258.09192,174.21973 317.31,142.45425 384.5,124.99201 c 23.18676,-6.02609 44.90228,-9.74962 70,-12.0028 7.06085,-0.6339 188.29397,-0.98784 506.08939,-0.98837 429.32711,-7.3e-4 497.14001,0.19561 510.52751,1.47812 61.2973,5.8722 123.952,26.49813 176.7242,58.17754 97.9659,58.80948 168.2449,154.10571 195.1573,264.62727 9.113,37.42469 11.4711,58.66579 11.4584,103.21623 -0.011,37.57167 -1.0469,51.05943 -6.0307,78.5 -7.5805,41.73698 -19.0585,75.94824 -38.5829,115 -32.9654,65.93557 -80.8558,120.62193 -141.7297,161.84208 -62.3443,42.21577 -134.3263,67.04845 -209.1135,72.14092 -17.8775,1.21732 -986.34319,1.12469 -1002.5,-0.0959 z"
       id="path845"
       inkscape:connector-curvature="0" />
    <path
       style="fill:#8beaf3"
       d="M 460.56752,966.88595 C 445.08541,965.89975 424.76758,963.02179 405,959.01497 287.18697,935.13468 184.94703,861.72744 123.10598,756.61793 95.47076,709.64711 77.026199,655.60743 68.796628,597.5 66.741725,582.99073 66.529173,577.68001 66.515299,540.5 66.498901,496.55496 67.003339,489.83828 72.63614,459 91.049584,358.19066 148.10694,264.60261 230,200.8847 c 60.09288,-46.75602 131.96003,-76.11088 212,-86.59356 12.72438,-1.66648 41.96823,-1.78593 509,-2.079 353.2531,-0.22167 499.8062,0.005 510.5,0.78846 66.2075,4.85249 129.9874,25.2331 187.9259,60.0509 51.269,30.80987 97.623,74.76106 131.7795,124.9485 48.5047,71.26983 73.7748,154.16212 73.7748,242 0,117.76576 -46.3391,227.59086 -130.2032,308.58531 -73.3787,70.86787 -168.632,112.44146 -271.277,118.39966 -20.8542,1.21052 -973.86641,1.11548 -992.93248,-0.099 z M 1490.5,889.14077 c 21.3646,-2.97004 44.4316,-8.94234 62.7952,-16.25839 14.451,-5.75725 36.2825,-17.03467 44.3196,-22.89403 L 1604.4572,845 955.47859,845.0222 306.5,845.0444 l 2.5,2.04617 c 11.07567,9.06509 39.13692,23.29478 58.71759,29.77535 22.37861,7.40659 41.39733,11.07823 69.78241,13.47177 2.2,0.18551 238,0.27359 524,0.19573 410.1625,-0.11167 521.901,-0.40585 529,-1.39272 z"
       id="path843"
       inkscape:connector-curvature="0" />
    <path
       style="fill:#83e8f2"
       d="M 465.5,966.94888 C 429.78874,965.17455 386.00928,956.36031 350,943.69496 226.05272,900.09963 128.41249,801.03143 87.411726,677.26636 78.523619,650.43669 72.93398,626.102 68.863981,596.51812 65.850339,574.61265 65.088145,520.18958 67.470128,496.99261 73.184447,441.34367 86.614707,394.60609 110.5812,346.96519 170.4743,227.90893 278.75201,145.69378 410.00267,119.6148 c 14.89481,-2.95954 31.58289,-5.15652 49.94722,-6.57553 18.49326,-1.42897 980.77121,-1.42674 1001.05011,0.002 109.7964,7.73738 213.6156,59.38329 287.3764,142.9584 79.3698,89.93039 116.7012,208.16526 104.1046,329.71646 -19.2811,186.0528 -157.2227,337.64667 -340.011,373.66238 -23.1915,4.56953 -38.6111,6.43126 -63.1256,7.62163 -23.422,1.13733 -960.90495,1.08817 -983.8444,-0.0516 z M 1497,888.72974 c 55.5074,-9.09029 112.1505,-37.37455 147.4624,-73.63415 L 1649.4248,810 H 956.66529 263.90575 l 3.18492,3.9632 c 3.79415,4.72131 16.84239,16.66994 25.90933,23.72587 35.23144,27.41726 81.62038,46.20372 126.5,51.22961 5.5,0.61593 11.35,1.27087 13,1.45543 1.65,0.18456 239.475,0.27698 528.5,0.20537 491.8276,-0.12185 526.1728,-0.24037 536,-1.84974 z"
       id="path841"
       inkscape:connector-curvature="0" />
    <path
       style="fill:#7ae6f1"
       d="M 470,966.92766 C 449.02129,966.1212 429.27423,963.64527 405.63905,958.85795 235.96688,924.4907 103.86789,789.68564 72.603377,619 68.098843,594.40792 66.795276,579.9243 66.266918,548.5971 65.604845,509.34183 67.80118,483.38378 74.567007,450.5 93.801915,357.01305 145.03062,271.9524 219.55702,209.75714 282.8508,156.93595 361.80448,123.66317 446,114.3292 461.76556,112.58142 484.71132,112.5 961.5,112.5 c 475.4529,0 499.7078,0.0855 514,1.811 95.6174,11.54423 180.7453,51.2626 247.6459,115.54481 94.873,91.15997 141.342,216.56611 129.7451,350.14419 -15.073,173.61668 -136.4818,321.59251 -303.891,370.38932 -34.8306,10.15249 -64.9582,14.96971 -104,16.62895 -25.684,1.09155 -946.47413,1.00598 -975,-0.0906 z m 1018,-76.94072 c 30.589,-3.15034 66.9106,-14.64022 97,-30.68478 23.9867,-12.79039 49.8466,-32.15905 70.539,-52.83259 C 1666.6406,795.37812 1682,777.55307 1682,775.76076 1682,775.34234 1356.2,775 958,775 c -398.2,0 -723.99634,0.3375 -723.99186,0.75 0.0156,1.44063 13.33667,18.81547 20.50883,26.75 33.57907,37.14835 69.89286,61.06515 115.20051,75.87275 17.11278,5.59286 34.58611,9.21283 57.78252,11.97089 7.57227,0.90034 1051.7044,0.54915 1060.5,-0.3567 z"
       id="path839"
       inkscape:connector-curvature="0" />
    <path
       style="fill:#73e5f0"
       d="M 458,966.34319 C 429.86579,963.53512 411.36083,960.43338 387.3876,954.50736 296.44001,932.02575 217.15837,880.66466 156.31506,804.81144 147.68619,794.05385 128.63276,765.65348 121.1701,752.4256 113.60855,739.02244 99.839369,710.17118 94.609816,696.77251 81.698156,663.69144 72.000702,623.40882 67.82258,585.5 66.069029,569.58973 66.046499,509.46759 67.788479,494.5 79.664527,392.4576 120.96262,305.97877 191.4811,235.48581 239.26817,187.71603 299.90488,151.34431 365.5,131.10403 c 22.26739,-6.87092 48.7515,-12.74575 68,-15.0841 4.95,-0.60134 12.825,-1.61367 17.5,-2.24963 11.36806,-1.54643 967.0012,-2.35723 999,-0.84759 25.9612,1.22479 39.3558,2.88865 65,8.07425 54.2271,10.96543 103.0445,31.30801 150,62.50609 95.4265,63.40313 161.7216,163.9117 182.3765,276.49695 5.3536,29.18141 6.1007,38.83693 6.1125,79 0.012,39.32337 -0.4809,46.52298 -5.0925,74.45649 -22.3742,135.52587 -111.5758,253.55282 -236.3965,312.78774 -40.2172,19.08545 -80.591,30.96538 -129,37.958 l -15.5,2.23896 -503,0.12567 c -276.65,0.0691 -504.575,-0.0315 -506.5,-0.22367 z M 1484.3126,890.5023 c 55.8186,-5.34736 107.6576,-28.15062 154.6874,-68.04495 11.9119,-10.10459 34.8907,-33.8982 45.3494,-46.95735 C 1694.4755,762.85605 1705,747.53331 1705,745.43447 1705,744.18979 1606.3632,744 959.5,744 270.14423,744 214,744.12313 214,745.63499 c 0,2.50065 11.23817,20.81261 20.24179,32.98286 49.56144,66.99244 116.2238,105.15727 196.142,112.29313 5.01391,0.44769 240.68143,0.87586 523.7056,0.9515 450.15511,0.1203 516.54701,-0.05 530.22321,-1.36018 z"
       id="path837"
       inkscape:connector-curvature="0" />
    <path
       style="fill:#6be4f0"
       d="M 455,965.88065 C 440.96493,964.75644 419.61973,961.5225 402.5,957.92656 256.15213,927.18667 135.99905,820.28401 88.438967,678.5 74.034223,635.55722 67.559001,598.51527 66.325775,552 63.848321,458.55445 88.375458,373.73736 139.7767,298 156.30444,273.64712 172.17935,254.88203 195.61915,231.99085 228.5347,199.84571 261.65642,176.57957 304.5,155.5082 c 45.57805,-22.41624 92.28843,-35.72616 144,-41.03217 21.41426,-2.19728 1000.7284,-2.19219 1023.5894,0.005 50.3435,4.83925 101.5875,19.74394 148.2535,43.12062 98.8798,49.53247 175.6702,137.68157 211.206,242.44742 16.8118,49.56425 23.2737,93.33441 22.1374,149.95062 -0.7514,37.44016 -3.7745,61.61082 -11.7845,94.22106 C 1812.5813,763.58978 1732.579,864.53011 1623,920.41323 c -51.7386,26.38566 -104.817,41.35403 -161.5,45.54381 -17.156,1.2681 -990.63736,1.19422 -1006.5,-0.0764 z m 1028.5763,-74.93708 c 62.2315,-6.01843 120.1179,-33.66141 170.0042,-81.18349 27.6576,-26.34683 58.6684,-67.4092 70.2424,-93.01008 l 3.0517,-6.75 H 960.95346 195.03236 l 1.39241,3.25 c 0.76582,1.7875 2.83132,6.70771 4.58999,10.93381 6.38128,15.33425 24.9354,45.38437 38.47647,62.31619 29.06046,36.33735 59.3503,60.98806 97.57743,79.41122 28.62175,13.79395 60.38179,22.33444 94.43134,25.39324 2.2,0.19763 237.35935,0.43498 522.57632,0.52744 357.84908,0.116 521.96198,-0.15933 529.49998,-0.88833 z"
       id="path835"
       inkscape:connector-curvature="0" />
    <path
       style="fill:#65e3f0"
       d="M 457.5,965.90594 C 425.08483,963.5126 386.47006,955.49283 353.56081,944.31914 242.23515,906.52073 150.33128,822.52821 102.64183,715 67.549906,635.87618 57.318397,545.39247 73.581372,458 85.160456,395.77739 111.28274,336.06173 149.47798,284.5 172.55476,253.34745 204.66904,220.79832 234.5,198.32669 290.45451,156.17622 360.62614,126.67553 428,116.97781 c 28.25161,-4.06651 15.27726,-3.96994 532.5,-3.96341 330.698,0.004 497.9669,0.34699 506,1.03705 80.4503,6.91077 158.8532,37.55219 222.5,86.95746 91.6529,71.14473 149.0507,173.18473 162.5584,288.99109 2.166,18.56953 2.9712,61.63421 1.5239,81.5 -4.2997,59.01999 -18.8628,111.71584 -45.2603,163.77309 -67.317,132.75203 -201.1633,221.03581 -349.822,230.73925 -17.8809,1.16715 -984.64371,1.06433 -1000.5,-0.1064 z m 1029.0763,-74.96892 c 30.8248,-2.99954 63.3489,-12.84788 94.1579,-28.51117 27.9459,-14.20763 51.2194,-31.26032 76.1137,-55.76914 27.45,-27.02487 49.6489,-56.22629 69.0581,-90.84216 C 1732.918,703.30889 1741,685.64627 1741,682.82782 1741,682.37252 1390.4865,682 962.081,682 H 183.16201 l 2.45655,7.99914 c 7.54305,24.56197 26.76339,60.40354 47.72745,89.00086 13.12551,17.90466 36.37721,42.30279 52.65399,55.25013 39.10345,31.10477 84.97254,50.18695 135,56.1619 9.60263,1.14688 97.554,1.39118 533.07632,1.48073 361.57348,0.0743 524.92738,-0.21885 532.49998,-0.95574 z"
       id="path833"
       inkscape:connector-curvature="0" />
    <path
       style="fill:#61e2ee"
       d="m 459,965.90039 c -24.10577,-1.60037 -62.12197,-8.50762 -87.47876,-15.8942 C 272.61997,921.19565 186.29311,855.91434 131.20984,768.28009 120.75052,751.63993 102.60073,716.09602 96.088651,699.5 62.276273,613.32922 56.935721,515.39234 81.147282,425.5 107.30413,328.38522 169.17275,241.9415 253,185.38492 c 61.32057,-41.37176 132.10271,-66.01518 205,-71.37253 11.37971,-0.83631 147.4823,-1.05302 512,-0.81523 470.873,0.30717 497.1968,0.41654 510,2.11901 106.9188,14.21719 198.9013,62.77371 268.3971,141.68383 55.4886,63.0053 91.6479,142.75157 102.0217,225 12.0679,95.67927 -6.1051,190.35515 -51.9415,270.60019 -7.8534,13.74883 -26.9141,42.06315 -35.7802,53.15093 -36.6912,45.88516 -80.9793,83.0538 -131.1971,110.10675 -47.0812,25.3632 -96.8538,41.16072 -152.5,48.40258 l -16.5,2.14733 -495.5,0.16124 c -272.525,0.0887 -501.125,-0.2122 -508,-0.66863 z m 1044,-76.74625 c 82.7345,-15.52671 153.5835,-65.88812 207.7438,-147.67004 14.7587,-22.28556 32.0229,-54.94693 36.7281,-69.4841 0.9791,-3.025 2.1638,-6.5125 2.6327,-7.75 l 0.8525,-2.25 H 963.39911 175.84109 l 0.65131,3.25 c 2.33115,11.63233 12.41517,37.60028 22.16551,57.07972 18.76052,37.48015 36.82329,63.01805 63.84209,90.2626 17.42622,17.57182 24.59436,23.56634 42.93665,35.90676 35.41474,23.82648 72.65025,36.89766 122.06335,42.84919 1.65,0.19873 241.5,0.31417 533,0.25653 l 530,-0.1048 z"
       id="path831"
       inkscape:connector-curvature="0" />
    <path
       style="fill:#5be1ee"
       d="M 460.56173,965.88565 C 405.03081,962.34864 340.90798,943.98775 291.9204,917.597 194.67604,865.20921 122.69881,780.26772 88.468367,677.5 72.781717,630.40504 66.916188,593.29642 66.892661,541 66.876359,504.76481 68.219506,488.39621 73.621274,459 94.534141,345.19303 163.40798,242.73788 261,180.25968 c 55.52689,-35.5482 114.812,-56.71379 182,-64.97649 13.7365,-1.6893 40.93274,-1.78319 516.5,-1.78319 410.1843,0 504.1948,0.24247 514,1.32569 79.5104,8.78382 154.4069,38.84663 215.5,86.49985 66.9911,52.25372 115.4456,120.08614 142.3191,199.23527 32.4535,95.58358 29.9512,204.57736 -6.8288,297.43919 -48.5233,122.51109 -150.4493,215.40351 -276.4681,251.9649 -30.2653,8.78076 -61.0505,14.02597 -94.0222,16.01956 -20.194,1.22101 -974.20691,1.12612 -993.43827,-0.0988 z M 1490.5,891.14389 c 34.427,-4.76639 70.6447,-16.82912 99.7262,-33.21495 47.95,-27.01721 92.8184,-71.39813 126.6398,-125.26405 16.9976,-27.07125 36.5059,-67.97542 40.1283,-84.13947 0.5159,-2.3019 1.2263,-4.9368 1.5788,-5.85535 C 1759.1714,641.11084 1706.445,641 964.10699,641 c -437.30885,0 -795.10578,0.3375 -795.1043,0.75 0.009,2.54069 6.49726,25.51462 9.81386,34.75 20.06062,55.8607 48.88071,102.62264 85.55747,138.821 46.37643,45.7715 105.07724,72.2363 169.99718,76.64187 6.12084,0.41537 244.2288,0.68138 529.1288,0.59114 407.3047,-0.12901 519.9233,-0.43035 527,-1.41012 z"
       id="path829"
       inkscape:connector-curvature="0" />
    <path
       style="fill:#53e0ed"
       d="M 464.97548,965.94351 C 420.24704,963.62225 366.07486,950.82795 323.60028,932.55374 191.28764,875.62772 95.92346,754.50965 72.551866,613.7076 68.230637,587.67437 67,571.33621 67,540 c 0,-30.24716 1.177942,-46.68752 5.12293,-71.5 15.892381,-99.95704 69.13712,-192.67937 148.54332,-258.67877 59.64352,-49.57341 136.67495,-83.15112 213.94579,-93.25816 28.00551,-3.66313 32.43549,-3.6906 536.88796,-3.329 544.5339,0.39033 497.3164,-0.16727 533,6.2943 58.3035,10.5576 114.1386,33.26364 163.5,66.48937 83.8723,56.45538 147.678,147.35875 172.4264,245.65412 9.6797,38.44537 13.0194,66.45519 12.976,108.82814 -0.028,27.33332 -0.9048,41.15873 -3.9641,62.5 -12.9474,90.31987 -55.7746,175.66866 -120.3397,239.82043 -59.8738,59.49053 -135.0456,99.60107 -216.5986,115.57371 -22.8095,4.46738 -38.1057,6.34051 -62,7.59233 -22.3872,1.17286 -962.88682,1.13186 -985.52452,-0.043 z M 1492.5,891.18489 c 33.2516,-5.12374 60.0217,-13.73314 89.8264,-28.88859 63.5344,-32.30669 121.8816,-95.97353 159.2497,-173.76892 11.4202,-23.77515 23.0291,-54.59634 25.4346,-67.52738 0.5627,-3.025 1.2708,-6.2875 1.5736,-7.25 0.5239,-1.66567 -38.1754,-1.75 -803.09651,-1.75 H 161.84081 l 0.68967,6.75 c 0.97221,9.51534 6.55126,30.92874 13.0303,50.01262 13.07828,38.52188 30.17424,72.5829 51.81703,103.23738 11.34468,16.06841 20.97099,27.46366 35.56183,42.09668 22.19934,22.26354 43.83482,37.81804 71.56036,51.44723 30.86333,15.17166 59.65858,22.92923 99.5,26.80575 1.925,0.1873 239.075,0.27922 527,0.20425 409.3323,-0.10657 525.2447,-0.40513 531.5,-1.36902 z"
       id="path827"
       inkscape:connector-curvature="0" />
    <path
       style="fill:#50dfed"
       d="m 469.5,965.96288 c -18.54626,-0.76051 -27.62574,-1.72024 -47.55611,-5.02686 C 316.79921,943.49161 224.96608,889.29534 157.29566,804.75112 147.33704,792.30929 128.83647,764.45702 119.93147,748.5 93.356834,700.88049 76.933725,649.93153 69.323407,591.5 66.694137,571.31264 66.684696,508.81373 69.307847,488.5 78.219825,419.48548 99.481342,360.70847 135.58111,305.28898 162.35944,264.17953 202.67614,221.75954 241.5,193.84437 299.09372,152.43328 366.54276,125.51655 435,116.62478 c 28.57447,-3.71148 33.35717,-3.74185 536.5,-3.40716 543.7531,0.36171 495.6639,-0.21731 532.5,6.41159 121.4147,21.8494 225.6912,93.82733 289.5586,199.87079 53.9548,89.58484 72.6031,199.36051 51.9151,305.60491 -8.5396,43.85558 -25.5739,89.42703 -48.0271,128.48581 -32.6484,56.79399 -79.5401,106.63614 -134.4466,142.90589 -58.3809,38.5649 -120.8543,60.45588 -196,68.67935 -12.0483,1.31849 -966.18052,2.0712 -997.5,0.78692 z M 1488,891.53209 c 62.3506,-6.68077 122.0394,-36.69043 172.0755,-86.51421 46.767,-46.56857 83.4986,-107.51183 105.3402,-174.775 5.2233,-16.08553 9.9106,-34.90598 9.043,-36.30968 C 1774.1025,593.35685 1464.9188,593 965.9096,593 c -654.39934,0 -808.06547,0.24263 -808.46221,1.27649 -0.7576,1.97429 3.19414,23.68147 7.14056,39.22351 14.58299,57.43177 39.32023,109.26121 72.78544,152.5 18.02687,23.29165 49.20081,51.72497 73.12661,66.69777 32.391,20.27034 71.3097,33.97975 108.5,38.21997 5.225,0.59572 10.85,1.24051 12.5,1.43286 1.65,0.19236 237,0.41234 523,0.48886 447.4643,0.11972 521.8831,-0.0627 533.5,-1.30737 z"
       id="path825"
       inkscape:connector-curvature="0" />
    <path
       style="fill:#4bdeed"
       d="M 451,964.85719 C 435.27637,963.41571 405.6502,958.12455 386.74172,953.38082 280.77046,926.79489 189.75326,860.40326 130.8255,766.70516 120.75748,750.69651 102.42642,714.3332 95.686524,697 82.776818,663.79972 74.195962,628.98154 69.31417,589.99002 66.473524,567.3014 66.75556,508.74435 69.81744,485.5 82.247216,391.13898 121.73947,308.77434 186.5,242.14806 c 36.72966,-37.78784 73.35665,-64.19489 121,-87.23764 45.11428,-21.81958 91.4254,-34.71018 144,-40.08212 19.02887,-1.94431 1000.0856,-1.9699 1018,-0.0265 55.8754,6.06135 104.9582,20.36496 152.2845,44.37847 117.0775,59.4055 200.9317,171.70696 224.6186,300.81977 4.912,26.7745 5.8113,36.99906 6.3256,71.92307 0.5133,34.86066 -0.1081,46.66498 -3.821,72.57693 -18.4447,128.72366 -98.0082,244.09361 -212.4001,307.98774 -53.0367,29.62387 -112.2447,47.69911 -171.9028,52.47906 C 1448.5504,966.25316 465.06673,966.1468 451,964.85723 Z m 1035.5763,-72.92017 c 40.1987,-3.91171 85.6269,-20.44775 121.8052,-44.3375 35.6345,-23.53063 70.3799,-58.13312 98.0894,-97.68573 21.4243,-30.58118 41.385,-69.35803 55.3928,-107.60964 C 1769.4983,621.45637 1779,585.21829 1779,576.94924 1779,575.01852 1771.2788,575 966.36191,575 h -812.6381 l 0.66174,6.75 c 3.88301,39.60816 20.53841,95.15952 41.11659,137.13764 C 245.04451,819.95081 323.19524,879.74298 421,891.4133 c 9.59732,1.14518 97.79493,1.38996 533.07632,1.47946 361.57348,0.0743 524.92738,-0.21885 532.49998,-0.95574 z"
       id="path823"
       inkscape:connector-curvature="0" />
    <path
       style="fill:#43ddec"
       d="M 463,965.34107 C 395.49317,960.49306 329.77346,940.11217 274.30803,906.82425 170.8291,844.72073 99.344792,744.07828 75.478096,626.89245 64.263736,571.82978 64.32245,507.77496 75.638405,452 95.492249,354.14284 151.1348,264.50158 230.48331,202.54176 282.58828,161.85524 347.65694,132.65697 413,120.64102 c 38.90564,-7.15437 -3.91838,-6.63477 547.08939,-6.63806 429.77971,-0.003 497.63941,0.19343 511.02751,1.476 98.2394,9.41121 191.9908,54.27883 260.4297,124.63664 67.8822,69.78544 107.0579,151.97782 119.1083,249.89438 2.2657,18.41002 2.5708,75.71747 0.5057,94.99002 -5.5628,51.9151 -19.9558,101.66315 -42.3596,146.4122 -8.9449,17.86641 -13.7807,26.09896 -27.3657,46.5878 -47.5205,71.67063 -116.4678,127.16686 -197.9353,159.31976 -31.3237,12.36258 -67.2776,21.27219 -106.5,26.39139 -12.7268,1.66107 -42.0207,1.76746 -511.5,1.85754 -273.9,0.0525 -500.025,-0.0499 -502.5,-0.22762 z m 1019,-72.80779 c 61.8821,-5.46319 118.7834,-31.75178 169.2083,-78.17483 50.4803,-46.47406 91.7735,-112.5683 115.883,-185.48327 9.1025,-27.52861 15.3536,-55.27401 16.5881,-73.62518 l 0.6222,-9.25 H 967.65082 151 l 0.0173,9.25 c 0.0659,35.16943 14.46336,95.68835 33.46358,140.6622 14.49646,34.31336 33.41594,66.65245 54.16705,92.5878 11.12474,13.90403 33.97981,36.94544 46.35204,46.72995 43.71553,34.5722 93.87543,53.9213 149.50694,57.67205 6.59618,0.44472 241.26806,0.87145 521.49306,0.94828 438.74813,0.12029 511.79133,-0.0626 526.00003,-1.317 z"
       id="path821"
       inkscape:connector-curvature="0" />
    <path
       style="fill:#3adcec"
       d="M 462.38406,964.905 C 426.57279,962.82342 382.46636,953.53491 346.60247,940.52219 214.60522,892.62879 113.80699,781.03596 80.118384,645.5 74.554138,623.11394 71.114831,602.63128 68.930289,578.86975 67.079422,558.73765 68.259026,501.42797 70.924157,482 83.634567,389.3451 123.43369,307.79352 188.46768,241.14392 260.95511,166.85572 357.18397,122.23388 460.5,115.00107 c 11.58331,-0.81091 152.64129,-1.02622 511,-0.77998 l 495,0.34013 15.251,2.21433 c 44.0806,6.40015 76.0474,15.09931 113.6299,30.92222 83.6485,35.21749 155.2416,98.89699 201.5845,179.30223 23.9094,41.48294 41.2759,89.47259 49.3965,136.5 4.7861,27.71629 6.0301,43.49835 6.0301,76.5 0,31.76091 -1.1886,47.74713 -5.4088,72.74569 -25.7163,152.33193 -133.0751,279.23729 -278.9832,329.77714 -30.0601,10.41225 -59.9332,16.95336 -99,21.67737 -11.3245,1.36936 -983.47266,2.05003 -1006.61594,0.7048 z M 1485.144,892.97116 c 51.6397,-5.13031 104.0227,-27.03862 147.4067,-61.65036 67.6979,-54.0094 121.8066,-141.91841 145.4573,-236.3208 7.2228,-28.82997 11.3191,-55.96082 10.7953,-71.5 l -0.3033,-9 -820.2308,-0.25061 -820.23079,-0.2506 -0.66473,2.64849 c -1.00765,4.01479 0.33798,36.27954 2.07915,49.85272 16.00048,124.73079 73.63465,229.98947 155.47897,283.95503 36.31482,23.94485 78.14749,38.28804 125.0682,42.8822 9.56534,0.93657 1045.6503,0.57711 1055.144,-0.36607 z"
       id="path819"
       inkscape:connector-curvature="0" />
  </g>
</svg>
